<?xml version="1.0" encoding="UTF-8"?>
<svg xmlns="http://www.w3.org/2000/svg" viewBox="0 0 500 600" width="500" height="600">

  <!-- ═══════════════════════════════════════════════════════════ -->
  <!-- BuildMyBody — Seated Hamstring Stretch Anatomy Diagram      -->
  <!-- Posterior view, slight right-side angle                     -->
  <!-- Layers: Bones → Silhouette → Muscles → Labels              -->
  <!-- ═══════════════════════════════════════════════════════════ -->

  <defs>

    <!-- Per-muscle radialGradients: highlight at center belly, shadow at edges -->

    <radialGradient id="grad-hamstrings" cx="50%" cy="38%" r="56%" gradientUnits="objectBoundingBox">
      <stop offset="0%"   stop-color="#FF7755"/>
      <stop offset="42%"  stop-color="#CC2200"/>
      <stop offset="100%" stop-color="#5a0000"/>
    </radialGradient>

    <radialGradient id="grad-glutes" cx="50%" cy="36%" r="58%" gradientUnits="objectBoundingBox">
      <stop offset="0%"   stop-color="#FF5533"/>
      <stop offset="48%"  stop-color="#BB1800"/>
      <stop offset="100%" stop-color="#600000"/>
    </radialGradient>

    <radialGradient id="grad-calves" cx="50%" cy="34%" r="54%" gradientUnits="objectBoundingBox">
      <stop offset="0%"   stop-color="#FF5533"/>
      <stop offset="45%"  stop-color="#CC2200"/>
      <stop offset="100%" stop-color="#5a0000"/>
    </radialGradient>

    <radialGradient id="grad-soleus" cx="50%" cy="50%" r="52%" gradientUnits="objectBoundingBox">
      <stop offset="0%"   stop-color="#EE4422"/>
      <stop offset="50%"  stop-color="#AA1500"/>
      <stop offset="100%" stop-color="#4a0000"/>
    </radialGradient>

    <radialGradient id="grad-erectors" cx="50%" cy="40%" r="55%" gradientUnits="objectBoundingBox">
      <stop offset="0%"   stop-color="#FF4422"/>
      <stop offset="50%"  stop-color="#CC2200"/>
      <stop offset="100%" stop-color="#5a0000"/>
    </radialGradient>

    <radialGradient id="grad-lats" cx="44%" cy="38%" r="62%" gradientUnits="objectBoundingBox">
      <stop offset="0%"   stop-color="#FF4422"/>
      <stop offset="48%"  stop-color="#BB1800"/>
      <stop offset="100%" stop-color="#580000"/>
    </radialGradient>

    <radialGradient id="grad-traps" cx="50%" cy="36%" r="58%" gradientUnits="objectBoundingBox">
      <stop offset="0%"   stop-color="#FF4422"/>
      <stop offset="46%"  stop-color="#CC2200"/>
      <stop offset="100%" stop-color="#5c0000"/>
    </radialGradient>

    <radialGradient id="grad-reardelts" cx="50%" cy="44%" r="55%" gradientUnits="objectBoundingBox">
      <stop offset="0%"   stop-color="#FF5533"/>
      <stop offset="48%"  stop-color="#CC2200"/>
      <stop offset="100%" stop-color="#5a0000"/>
    </radialGradient>

    <radialGradient id="grad-triceps" cx="50%" cy="38%" r="55%" gradientUnits="objectBoundingBox">
      <stop offset="0%"   stop-color="#FF4422"/>
      <stop offset="48%"  stop-color="#BB1800"/>
      <stop offset="100%" stop-color="#520000"/>
    </radialGradient>

    <radialGradient id="grad-forearms" cx="50%" cy="38%" r="54%" gradientUnits="objectBoundingBox">
      <stop offset="0%"   stop-color="#EE4422"/>
      <stop offset="48%"  stop-color="#AA1500"/>
      <stop offset="100%" stop-color="#4a0000"/>
    </radialGradient>

  </defs>

  <!-- ─────────────────── CSS Animations ─────────────────────── -->
  <style>
    @keyframes musclePulse-hamstrings {
      0%   { filter: drop-shadow(0 0 4px #FF4422); opacity: 0.85; }
      50%  { filter: drop-shadow(0 0 14px #FF7755); opacity: 1.0; }
      100% { filter: drop-shadow(0 0 4px #FF4422); opacity: 0.85; }
    }
    @keyframes musclePulse-glutes {
      0%   { filter: drop-shadow(0 0 4px #FF4422); opacity: 0.85; }
      50%  { filter: drop-shadow(0 0 12px #FF6644); opacity: 1.0; }
      100% { filter: drop-shadow(0 0 4px #FF4422); opacity: 0.85; }
    }
    @keyframes musclePulse-calves {
      0%   { filter: drop-shadow(0 0 4px #FF4422); opacity: 0.85; }
      50%  { filter: drop-shadow(0 0 12px #FF6644); opacity: 1.0; }
      100% { filter: drop-shadow(0 0 4px #FF4422); opacity: 0.85; }
    }
    @keyframes musclePulse-soleus {
      0%   { filter: drop-shadow(0 0 4px #FF4422); opacity: 0.85; }
      50%  { filter: drop-shadow(0 0 12px #FF6644); opacity: 1.0; }
      100% { filter: drop-shadow(0 0 4px #FF4422); opacity: 0.85; }
    }
    @keyframes musclePulse-erectors {
      0%   { filter: drop-shadow(0 0 4px #FF4422); opacity: 0.85; }
      50%  { filter: drop-shadow(0 0 12px #FF6644); opacity: 1.0; }
      100% { filter: drop-shadow(0 0 4px #FF4422); opacity: 0.85; }
    }
    @keyframes musclePulse-lats {
      0%   { filter: drop-shadow(0 0 4px #FF4422); opacity: 0.85; }
      50%  { filter: drop-shadow(0 0 12px #FF6644); opacity: 1.0; }
      100% { filter: drop-shadow(0 0 4px #FF4422); opacity: 0.85; }
    }
    @keyframes musclePulse-traps {
      0%   { filter: drop-shadow(0 0 4px #FF4422); opacity: 0.85; }
      50%  { filter: drop-shadow(0 0 12px #FF6644); opacity: 1.0; }
      100% { filter: drop-shadow(0 0 4px #FF4422); opacity: 0.85; }
    }
    @keyframes musclePulse-reardelts {
      0%   { filter: drop-shadow(0 0 4px #FF4422); opacity: 0.85; }
      50%  { filter: drop-shadow(0 0 12px #FF6644); opacity: 1.0; }
      100% { filter: drop-shadow(0 0 4px #FF4422); opacity: 0.85; }
    }
    @keyframes musclePulse-triceps {
      0%   { filter: drop-shadow(0 0 4px #FF4422); opacity: 0.85; }
      50%  { filter: drop-shadow(0 0 12px #FF6644); opacity: 1.0; }
      100% { filter: drop-shadow(0 0 4px #FF4422); opacity: 0.85; }
    }
    @keyframes musclePulse-forearms {
      0%   { filter: drop-shadow(0 0 4px #FF4422); opacity: 0.85; }
      50%  { filter: drop-shadow(0 0 12px #FF6644); opacity: 1.0; }
      100% { filter: drop-shadow(0 0 4px #FF4422); opacity: 0.85; }
    }

    #hamstrings { animation: musclePulse-hamstrings 3.2s ease-in-out 0.0s infinite; }
    #glutes     { animation: musclePulse-glutes     4.1s ease-in-out 0.7s infinite; }
    #calves     { animation: musclePulse-calves     3.7s ease-in-out 1.3s infinite; }
    #soleus     { animation: musclePulse-soleus     4.5s ease-in-out 0.4s infinite; }
    #erectors   { animation: musclePulse-erectors   3.9s ease-in-out 1.8s infinite; }
    #lats       { animation: musclePulse-lats       4.3s ease-in-out 0.9s infinite; }
    #traps      { animation: musclePulse-traps      3.5s ease-in-out 2.1s infinite; }
    #rear-delts { animation: musclePulse-reardelts  4.8s ease-in-out 0.3s infinite; }
    #triceps    { animation: musclePulse-triceps    3.3s ease-in-out 1.6s infinite; }
    #forearms   { animation: musclePulse-forearms   4.0s ease-in-out 2.4s infinite; }
  </style>

  <!-- ═══════════════════════════════════════════════════════════ -->
  <!-- LAYER 1 — BONE STRUCTURE                                    -->
  <!-- White outlines at low opacity beneath the muscle layer.    -->
  <!-- ═══════════════════════════════════════════════════════════ -->
  <g id="bones" stroke="#E8E8E8" fill="none" stroke-width="1.5" opacity="0.4">

    <!-- Spine: gentle posterior-kyphotic curve from C7 down to sacrum.
         In a seated forward fold the thoracic curve is exaggerated. -->
    <path d="M 250,118 C 251,142 253,172 255,205 C 257,240 256,274 253,308 C 251,332 250,348 250,364"/>

    <!-- Vertebral body ovals stacked along the spine curve -->
    <ellipse cx="250" cy="127" rx="5" ry="6" transform="rotate(-1 250 127)"/>
    <ellipse cx="251" cy="143" rx="5" ry="6" transform="rotate(-1 251 143)"/>
    <ellipse cx="252" cy="159" rx="5" ry="6" transform="rotate(-1 252 159)"/>
    <ellipse cx="252" cy="175" rx="5" ry="6" transform="rotate(-1 252 175)"/>
    <ellipse cx="253" cy="191" rx="5" ry="6" transform="rotate(-2 253 191)"/>
    <ellipse cx="253" cy="207" rx="5" ry="6" transform="rotate(-2 253 207)"/>
    <ellipse cx="254" cy="223" rx="5" ry="6" transform="rotate(-2 254 223)"/>
    <ellipse cx="254" cy="239" rx="5" ry="6" transform="rotate(-2 254 239)"/>
    <ellipse cx="254" cy="255" rx="5" ry="6" transform="rotate(-2 254 255)"/>
    <ellipse cx="253" cy="271" rx="5" ry="6" transform="rotate(-1 253 271)"/>
    <ellipse cx="253" cy="287" rx="5" ry="6" transform="rotate(-1 253 287)"/>
    <ellipse cx="252" cy="303" rx="5" ry="6"/>
    <ellipse cx="251" cy="319" rx="5" ry="6"/>
    <ellipse cx="250" cy="334" rx="5" ry="6"/>
    <ellipse cx="250" cy="350" rx="5" ry="5"/>

    <!-- Pelvis: wide rounded trapezoid at base of spine -->
    <path d="M 192,368 C 198,348 222,337 250,337 C 278,337 302,348 308,368
             C 313,383 304,400 288,404 C 270,408 230,408 212,404
             C 196,400 187,383 192,368 Z"/>

    <!-- Right femur: slightly curved line from pelvis lateral to knee -->
    <path d="M 280,378 C 284,402 292,428 298,455"/>

    <!-- Left femur -->
    <path d="M 220,378 C 216,402 208,428 202,455"/>

    <!-- Right tibia (medial, thicker) -->
    <path d="M 297,458 C 299,485 303,514 306,542"/>
    <!-- Right fibula (lateral, thinner) -->
    <path d="M 304,460 C 307,487 312,516 315,543"/>

    <!-- Left tibia -->
    <path d="M 203,458 C 201,485 197,514 194,542"/>
    <!-- Left fibula -->
    <path d="M 196,460 C 193,487 188,516 185,543"/>

    <!-- Right tarsal/metatarsal cluster -->
    <ellipse cx="302" cy="560" rx="9" ry="5"/>
    <ellipse cx="314" cy="557" rx="7" ry="4"/>
    <ellipse cx="295" cy="570" rx="7" ry="4"/>
    <ellipse cx="308" cy="570" rx="5" ry="3"/>

    <!-- Left tarsal/metatarsal cluster -->
    <ellipse cx="198" cy="560" rx="9" ry="5"/>
    <ellipse cx="186" cy="557" rx="7" ry="4"/>
    <ellipse cx="205" cy="570" rx="7" ry="4"/>
    <ellipse cx="192" cy="570" rx="5" ry="3"/>

    <!-- Ribcage — right side, 7 curved rib arcs from spine outward.
         Ribs are visible from behind because the torso is hinged forward. -->
    <path d="M 256,163 C 268,158 290,155 312,164"/>
    <path d="M 256,179 C 270,173 296,169 320,179"/>
    <path d="M 256,195 C 271,188 299,184 325,195"/>
    <path d="M 255,211 C 271,203 301,199 328,210"/>
    <path d="M 255,227 C 271,218 302,214 328,225"/>
    <path d="M 254,243 C 270,233 300,228 325,239"/>
    <path d="M 254,259 C 269,249 297,243 319,253"/>

    <!-- Ribcage — left side -->
    <path d="M 244,163 C 232,158 210,155 188,164"/>
    <path d="M 244,179 C 230,173 204,169 180,179"/>
    <path d="M 244,195 C 229,188 201,184 175,195"/>
    <path d="M 245,211 C 229,203 199,199 172,210"/>
    <path d="M 245,227 C 229,218 198,214 172,225"/>
    <path d="M 246,243 C 230,233 200,228 175,239"/>
    <path d="M 246,259 C 231,249 203,243 181,253"/>

    <!-- Right scapula: flat triangular blade prominent in forward fold -->
    <path d="M 294,152 C 316,156 338,172 336,198
             C 334,218 316,228 300,222
             C 287,218 280,206 283,191
             C 285,178 294,165 294,152 Z"/>
    <!-- Scapula spine ridge -->
    <path d="M 295,155 C 310,162 328,170 335,182"/>

    <!-- Left scapula -->
    <path d="M 206,152 C 184,156 162,172 164,198
             C 166,218 184,228 200,222
             C 213,218 220,206 217,191
             C 215,178 206,165 206,152 Z"/>
    <path d="M 205,155 C 190,162 172,170 165,182"/>

    <!-- Right humerus: from glenohumeral joint to elbow -->
    <path d="M 337,160 C 342,198 349,248 352,292"/>

    <!-- Left humerus -->
    <path d="M 163,160 C 158,198 151,248 148,292"/>

    <!-- Right radius (lateral forearm bone) -->
    <path d="M 351,296 C 348,340 344,390 338,440"/>
    <!-- Right ulna (medial forearm bone) -->
    <path d="M 356,298 C 354,342 350,392 344,442"/>

    <!-- Left radius -->
    <path d="M 149,296 C 152,340 156,390 162,440"/>
    <!-- Left ulna -->
    <path d="M 144,298 C 146,342 150,392 156,442"/>

  </g>

  <!-- ═══════════════════════════════════════════════════════════ -->
  <!-- LAYER 2 — BODY SILHOUETTE                                   -->
  <!-- Single closed path giving the figure mass and depth.       -->
  <!-- Traced clockwise from head top.                            -->
  <!-- ═══════════════════════════════════════════════════════════ -->
  <path id="silhouette"
    d="
      M 250,47
      C 278,43 300,59 300,77
      C 300,95 284,113 268,121
      C 294,124 328,137 348,158
      C 360,170 366,190 364,220
      C 362,252 356,286 351,318
      C 348,342 349,363 352,386
      C 355,406 352,426 347,450
      C 343,472 337,494 330,516
      C 324,537 318,555 310,569
      C 302,580 293,584 284,580
      C 275,576 270,565 270,552
      C 270,539 274,524 271,510
      C 266,495 257,489 250,489
      C 243,489 234,495 229,510
      C 226,524 230,539 230,552
      C 230,565 225,576 216,580
      C 207,584 198,580 190,569
      C 182,555 176,537 170,516
      C 163,494 157,472 153,450
      C 148,426 145,406 148,386
      C 151,363 152,342 149,318
      C 144,286 138,252 136,220
      C 134,190 140,170 152,158
      C 172,137 206,124 232,121
      C 216,113 200,95 200,77
      C 200,59 222,43 250,47 Z
    "
    fill="#1a0000" opacity="0.85"/>

  <!-- ═══════════════════════════════════════════════════════════ -->
  <!-- LAYER 3 — MUSCLE GROUPS                                     -->
  <!-- Painted front-to-back in anatomical order.                 -->
  <!-- ═══════════════════════════════════════════════════════════ -->

  <!-- ── TRAPEZIUS ─────────────────────────────────────────────
       Large diamond spanning neck → shoulder tips → T12.
       Widest at the shoulder line, converging top and bottom. -->
  <g id="traps">
    <path d="
      M 250,123
      C 272,126 310,138 340,160
      C 326,175 304,186 282,193
      C 268,198 258,201 250,203
      C 242,201 232,198 218,193
      C 196,186 174,175 160,160
      C 190,138 228,126 250,123 Z
    " fill="url(#grad-traps)"/>
  </g>

  <!-- ── REAR DELTOIDS ──────────────────────────────────────────
       Small rounded posterior shoulder cap on each side.       -->
  <g id="rear-delts">
    <!-- Right posterior deltoid -->
    <path d="
      M 338,154
      C 352,152 368,163 368,180
      C 368,196 355,207 341,204
      C 328,201 320,190 324,176
      C 327,164 333,156 338,154 Z
    " fill="url(#grad-reardelts)"/>
    <!-- Left posterior deltoid -->
    <path d="
      M 162,154
      C 148,152 132,163 132,180
      C 132,196 145,207 159,204
      C 172,201 180,190 176,176
      C 173,164 167,156 162,154 Z
    " fill="url(#grad-reardelts)"/>
  </g>

  <!-- ── LATISSIMUS DORSI ───────────────────────────────────────
       Fan-shaped, narrowing at axilla, widening to mid-lower back.
       Visible on each side of the torso from the posterior view. -->
  <g id="lats">
    <!-- Right latissimus dorsi -->
    <path d="
      M 334,176
      C 348,192 356,222 356,252
      C 356,280 351,310 347,330
      C 340,326 326,314 312,300
      C 300,287 292,270 290,253
      C 288,238 294,218 305,206
      C 316,194 328,182 334,176 Z
    " fill="url(#grad-lats)"/>
    <!-- Left latissimus dorsi -->
    <path d="
      M 166,176
      C 152,192 144,222 144,252
      C 144,280 149,310 153,330
      C 160,326 174,314 188,300
      C 200,287 208,270 210,253
      C 212,238 206,218 195,206
      C 184,194 172,182 166,176 Z
    " fill="url(#grad-lats)"/>
  </g>

  <!-- ── ERECTOR SPINAE ─────────────────────────────────────────
       Two thick sausage-shaped columns flanking the spine.
       Highly prominent in a rounded forward fold — they resist
       the flexion and are visually dominant on the posterior back. -->
  <g id="erectors">
    <!-- Right erector column -->
    <path d="
      M 259,136
      C 267,140 275,154 276,172
      C 277,198 276,232 274,266
      C 273,295 271,322 268,348
      C 265,362 261,372 257,376
      C 253,368 252,352 252,332
      C 252,306 254,277 255,250
      C 257,222 258,192 258,168
      C 258,152 258,140 259,136 Z
    " fill="url(#grad-erectors)"/>
    <!-- Left erector column -->
    <path d="
      M 241,136
      C 233,140 225,154 224,172
      C 223,198 224,232 226,266
      C 227,295 229,322 232,348
      C 235,362 239,372 243,376
      C 247,368 248,352 248,332
      C 248,306 246,277 245,250
      C 243,222 242,192 242,168
      C 242,152 242,140 241,136 Z
    " fill="url(#grad-erectors)"/>
  </g>

  <!-- ── GLUTEUS MAXIMUS ────────────────────────────────────────
       The largest muscle of the body. In the seated position the
       glutes are compressed against the floor and spread outward,
       making them appear wide and somewhat flattened. Each side
       forms a large, rounded lateral mass. -->
  <g id="glutes">
    <!-- Right gluteus maximus -->
    <path d="
      M 251,362
      C 265,355 290,349 314,357
      C 334,364 350,380 351,398
      C 352,415 342,432 326,438
      C 312,444 295,443 280,436
      C 266,429 257,416 254,402
      C 251,390 251,375 251,362 Z
    " fill="url(#grad-glutes)"/>
    <!-- Left gluteus maximus -->
    <path d="
      M 249,362
      C 235,355 210,349 186,357
      C 166,364 150,380 149,398
      C 148,415 158,432 174,438
      C 188,444 205,443 220,436
      C 234,429 243,416 246,402
      C 249,390 249,375 249,362 Z
    " fill="url(#grad-glutes)"/>
  </g>

  <!-- ── HAMSTRINGS ─────────────────────────────────────────────
       The primary muscle under stretch in this pose.
       Three muscles form two visual heads on each thigh:
       — Biceps femoris (outer/lateral): thicker, runs to fibula head
       — Semimembranosus + Semitendinosus (inner/medial): run to tibia
       Both heads appear elongated and taut — narrow spindles, not
       the round belly shape seen in a contracted state.           -->
  <g id="hamstrings">

    <!-- Right biceps femoris (outer/lateral head) -->
    <path d="
      M 300,375
      C 313,374 328,383 333,403
      C 338,423 334,445 325,457
      C 318,466 307,468 299,462
      C 290,455 287,438 288,420
      C 289,401 295,383 300,375 Z
    " fill="url(#grad-hamstrings)"/>

    <!-- Right semimembranosus / semitendinosus (inner/medial head) -->
    <path d="
      M 278,378
      C 290,376 303,386 304,407
      C 306,426 301,447 291,458
      C 284,466 274,467 267,460
      C 259,452 258,434 261,414
      C 264,395 270,381 278,378 Z
    " fill="url(#grad-hamstrings)"/>

    <!-- Left biceps femoris (outer/lateral head) -->
    <path d="
      M 200,375
      C 187,374 172,383 167,403
      C 162,423 166,445 175,457
      C 182,466 193,468 201,462
      C 210,455 213,438 212,420
      C 211,401 205,383 200,375 Z
    " fill="url(#grad-hamstrings)"/>

    <!-- Left semimembranosus / semitendinosus (inner/medial head) -->
    <path d="
      M 222,378
      C 210,376 197,386 196,407
      C 194,426 199,447 209,458
      C 216,466 226,467 233,460
      C 241,452 242,434 239,414
      C 236,395 230,381 222,378 Z
    " fill="url(#grad-hamstrings)"/>

  </g>

  <!-- ── GASTROCNEMIUS ──────────────────────────────────────────
       Diamond-shaped calf muscle with two visible lobes:
       lateral (outer) and medial (inner). In a seated stretch
       with knees extended the gastrocnemius is under stretch too.-->
  <g id="calves">

    <!-- Right lateral gastrocnemius head -->
    <path d="
      M 304,464
      C 317,463 330,472 332,489
      C 335,506 328,525 317,532
      C 308,537 297,535 291,527
      C 285,519 285,504 289,490
      C 293,476 300,465 304,464 Z
    " fill="url(#grad-calves)"/>

    <!-- Right medial gastrocnemius head -->
    <path d="
      M 283,465
      C 295,462 306,472 307,489
      C 308,505 302,524 292,531
      C 283,537 272,535 266,526
      C 260,517 261,500 265,487
      C 269,473 276,467 283,465 Z
    " fill="url(#grad-calves)"/>

    <!-- Left lateral gastrocnemius head -->
    <path d="
      M 196,464
      C 183,463 170,472 168,489
      C 165,506 172,525 183,532
      C 192,537 203,535 209,527
      C 215,519 215,504 211,490
      C 207,476 200,465 196,464 Z
    " fill="url(#grad-calves)"/>

    <!-- Left medial gastrocnemius head -->
    <path d="
      M 217,465
      C 205,462 194,472 193,489
      C 192,505 198,524 208,531
      C 217,537 228,535 234,526
      C 240,517 239,500 235,487
      C 231,473 224,467 217,465 Z
    " fill="url(#grad-calves)"/>

  </g>

  <!-- ── SOLEUS ─────────────────────────────────────────────────
       Broad, flat muscle deep to the gastrocnemius.
       Its edges peek out on both sides of the calf diamond and
       continue further down toward the Achilles. -->
  <g id="soleus">
    <!-- Right soleus -->
    <path d="
      M 318,527
      C 327,530 336,540 337,554
      C 338,567 330,578 318,579
      C 307,580 294,575 288,564
      C 282,553 283,538 290,531
      C 297,524 310,524 318,527 Z
    " fill="url(#grad-soleus)"/>
    <!-- Left soleus -->
    <path d="
      M 182,527
      C 173,530 164,540 163,554
      C 162,567 170,578 182,579
      C 193,580 206,575 212,564
      C 218,553 217,538 210,531
      C 203,524 190,524 182,527 Z
    " fill="url(#grad-soleus)"/>
  </g>

  <!-- ── TRICEPS BRACHII ────────────────────────────────────────
       Three-headed muscle on posterior upper arm.
       Since the arms are extended reaching forward, the triceps
       are active in stabilising the elbow and somewhat visible
       on the posterior-lateral upper arm. -->
  <g id="triceps">
    <!-- Right triceps — elongated oval, posterior upper arm -->
    <path d="
      M 344,174
      C 356,177 365,196 365,220
      C 365,246 358,275 350,294
      C 343,305 334,308 326,302
      C 319,295 318,279 322,258
      C 326,236 336,206 344,174 Z
    " fill="url(#grad-triceps)"/>
    <!-- Left triceps -->
    <path d="
      M 156,174
      C 144,177 135,196 135,220
      C 135,246 142,275 150,294
      C 157,305 166,308 174,302
      C 181,295 182,279 178,258
      C 174,236 164,206 156,174 Z
    " fill="url(#grad-triceps)"/>
  </g>

  <!-- ── FOREARM EXTENSORS ──────────────────────────────────────
       Extensor digitorum / carpi group on dorsal forearm.
       Visible as one elongated belly on the back of each forearm. -->
  <g id="forearms">
    <!-- Right forearm extensors -->
    <path d="
      M 354,298
      C 364,306 368,332 366,360
      C 364,388 356,420 347,448
      C 341,468 334,480 327,482
      C 321,477 317,460 320,435
      C 323,410 333,378 341,350
      C 347,325 350,305 354,298 Z
    " fill="url(#grad-forearms)"/>
    <!-- Left forearm extensors -->
    <path d="
      M 146,298
      C 136,306 132,332 134,360
      C 136,388 144,420 153,448
      C 159,468 166,480 173,482
      C 179,477 183,460 180,435
      C 177,410 167,378 159,350
      C 153,325 150,305 146,298 Z
    " fill="url(#grad-forearms)"/>
  </g>

  <!-- ═══════════════════════════════════════════════════════════ -->
  <!-- MUSCLE LABELS — right-side annotations                      -->
  <!-- Each label: dot at attachment → connector line → text      -->
  <!-- ═══════════════════════════════════════════════════════════ -->

  <!-- Trapezius -->
  <circle cx="308" cy="162" r="2.5" fill="#FF4422"/>
  <line x1="310" y1="161" x2="362" y2="142" stroke="#FFFFFF" stroke-width="0.75" opacity="0.6"/>
  <text x="364" y="146" font-family="system-ui,-apple-system,sans-serif" font-size="11" fill="#FFFFFF">Trapezius</text>

  <!-- Rear Deltoid -->
  <circle cx="354" cy="179" r="2.5" fill="#FF4422"/>
  <line x1="357" y1="178" x2="378" y2="165" stroke="#FFFFFF" stroke-width="0.75" opacity="0.6"/>
  <text x="380" y="169" font-family="system-ui,-apple-system,sans-serif" font-size="11" fill="#FFFFFF">Rear Deltoid</text>

  <!-- Erector Spinae -->
  <circle cx="270" cy="228" r="2.5" fill="#FF4422"/>
  <line x1="272" y1="227" x2="350" y2="208" stroke="#FFFFFF" stroke-width="0.75" opacity="0.6"/>
  <text x="352" y="212" font-family="system-ui,-apple-system,sans-serif" font-size="11" fill="#FFFFFF">Erector Spinae</text>

  <!-- Triceps -->
  <circle cx="355" cy="240" r="2.5" fill="#FF4422"/>
  <line x1="358" y1="239" x2="385" y2="228" stroke="#FFFFFF" stroke-width="0.75" opacity="0.6"/>
  <text x="387" y="232" font-family="system-ui,-apple-system,sans-serif" font-size="11" fill="#FFFFFF">Triceps</text>

  <!-- Latissimus Dorsi -->
  <circle cx="342" cy="258" r="2.5" fill="#FF4422"/>
  <line x1="345" y1="257" x2="375" y2="248" stroke="#FFFFFF" stroke-width="0.75" opacity="0.6"/>
  <text x="377" y="252" font-family="system-ui,-apple-system,sans-serif" font-size="11" fill="#FFFFFF">Latissimus Dorsi</text>

  <!-- Forearm Extensors -->
  <circle cx="358" cy="352" r="2.5" fill="#FF4422"/>
  <line x1="361" y1="351" x2="388" y2="338" stroke="#FFFFFF" stroke-width="0.75" opacity="0.6"/>
  <text x="390" y="342" font-family="system-ui,-apple-system,sans-serif" font-size="11" fill="#FFFFFF">Forearm Ext.</text>

  <!-- Gluteus Maximus -->
  <circle cx="332" cy="398" r="2.5" fill="#FF4422"/>
  <line x1="335" y1="397" x2="378" y2="382" stroke="#FFFFFF" stroke-width="0.75" opacity="0.6"/>
  <text x="380" y="386" font-family="system-ui,-apple-system,sans-serif" font-size="11" fill="#FFFFFF">Glut. Maximus</text>

  <!-- Hamstrings -->
  <circle cx="320" cy="422" r="2.5" fill="#FF4422"/>
  <line x1="323" y1="421" x2="378" y2="410" stroke="#FFFFFF" stroke-width="0.75" opacity="0.6"/>
  <text x="380" y="414" font-family="system-ui,-apple-system,sans-serif" font-size="11" fill="#FFFFFF">Hamstrings</text>

  <!-- Gastrocnemius -->
  <circle cx="322" cy="496" r="2.5" fill="#FF4422"/>
  <line x1="325" y1="495" x2="372" y2="480" stroke="#FFFFFF" stroke-width="0.75" opacity="0.6"/>
  <text x="374" y="484" font-family="system-ui,-apple-system,sans-serif" font-size="11" fill="#FFFFFF">Gastrocnemius</text>

  <!-- Soleus -->
  <circle cx="322" cy="548" r="2.5" fill="#FF4422"/>
  <line x1="325" y1="547" x2="368" y2="534" stroke="#FFFFFF" stroke-width="0.75" opacity="0.6"/>
  <text x="370" y="538" font-family="system-ui,-apple-system,sans-serif" font-size="11" fill="#FFFFFF">Soleus</text>

</svg>
